<mxfile host="65bd71144e">
    <diagram id="vZEFpv7oMuLPQBkKlR6d" name="PÃ¡gina-1">
        <mxGraphModel dx="650" dy="516" grid="1" gridSize="10" guides="1" tooltips="1" connect="1" arrows="1" fold="1" page="1" pageScale="1" pageWidth="827" pageHeight="1169" math="0" shadow="0">
            <root>
                <mxCell id="0"/>
                <mxCell id="1" parent="0"/>
                <mxCell id="17" value="" style="edgeStyle=orthogonalEdgeStyle;html=1;strokeColor=#000000;sketch=0;fontColor=#000000;" parent="1" source="2" target="16" edge="1">
                    <mxGeometry relative="1" as="geometry"/>
                </mxCell>
                <mxCell id="2" value="INICIO" style="ellipse;whiteSpace=wrap;html=1;fillColor=#FF9999;strokeColor=#000000;sketch=0;fontColor=#000000;" parent="1" vertex="1">
                    <mxGeometry x="200" y="120" width="80" height="40" as="geometry"/>
                </mxCell>
                <mxCell id="19" value="" style="edgeStyle=orthogonalEdgeStyle;html=1;strokeColor=#000000;sketch=0;fontColor=#000000;" parent="1" source="16" target="18" edge="1">
                    <mxGeometry relative="1" as="geometry"/>
                </mxCell>
                <mxCell id="16" value="c" style="shape=parallelogram;perimeter=parallelogramPerimeter;whiteSpace=wrap;html=1;fixedSize=1;fillColor=#FFFF99;strokeColor=#000000;sketch=0;fontColor=#000000;" parent="1" vertex="1">
                    <mxGeometry x="200" y="200" width="80" height="40" as="geometry"/>
                </mxCell>
                <mxCell id="21" value="" style="edgeStyle=orthogonalEdgeStyle;html=1;strokeColor=#000000;sketch=0;fontColor=#000000;" parent="1" source="18" target="20" edge="1">
                    <mxGeometry relative="1" as="geometry"/>
                </mxCell>
                <mxCell id="18" value="&lt;div&gt;f = (c * (9/5)) + 32&lt;br&gt;&lt;/div&gt;&lt;div&gt;k = c + 273.15&lt;/div&gt;" style="whiteSpace=wrap;html=1;fillColor=#9999FF;strokeColor=#000000;sketch=0;fontColor=#000000;" parent="1" vertex="1">
                    <mxGeometry x="180" y="280" width="120" height="60" as="geometry"/>
                </mxCell>
                <mxCell id="23" value="" style="edgeStyle=orthogonalEdgeStyle;html=1;strokeColor=#000000;sketch=0;fontColor=#000000;" parent="1" source="20" target="22" edge="1">
                    <mxGeometry relative="1" as="geometry"/>
                </mxCell>
                <mxCell id="20" value="f, k" style="shape=document;whiteSpace=wrap;html=1;boundedLbl=1;fillColor=#FFFF99;strokeColor=#000000;sketch=0;fontColor=#000000;" parent="1" vertex="1">
                    <mxGeometry x="200" y="380" width="80" height="40" as="geometry"/>
                </mxCell>
                <mxCell id="22" value="FIN" style="ellipse;whiteSpace=wrap;html=1;fillColor=#FF9999;strokeColor=#000000;sketch=0;fontColor=#000000;" parent="1" vertex="1">
                    <mxGeometry x="200" y="460" width="80" height="40" as="geometry"/>
                </mxCell>
            </root>
        </mxGraphModel>
    </diagram>
</mxfile>